<?xml version="1.0" encoding="UTF-8" standalone="no"?>
<!DOCTYPE svg PUBLIC "-//W3C//DTD SVG 1.1//EN"
 "http://www.w3.org/Graphics/SVG/1.1/DTD/svg11.dtd">
<!-- Generated by graphviz version 2.40.1 (20161225.0304)
 -->
<!-- Title: %3 Pages: 1 -->
<svg width="293pt" height="266pt"
 viewBox="0.00 0.00 293.00 266.00" xmlns="http://www.w3.org/2000/svg" xmlns:xlink="http://www.w3.org/1999/xlink">
<g id="graph0" class="graph" transform="scale(1 1) rotate(0) translate(4 262)">
<title>%3</title>
<polygon fill="#ffffff" stroke="transparent" points="-4,4 -4,-262 289,-262 289,4 -4,4"/>
<g id="clust1" class="cluster">
<title>clusterContributors</title>
<polygon fill="none" stroke="#c0c0c0" points="8,-175 8,-250 277,-250 277,-175 8,-175"/>
<text text-anchor="middle" x="142.5" y="-234.8" font-family="Arial" font-size="14.00" fill="#c0c0c0">Contributors</text>
</g>
<g id="clust3" class="cluster">
<title>clusterUsers</title>
<polygon fill="none" stroke="#c0c0c0" points="48,-8 48,-83 228,-83 228,-8 48,-8"/>
<text text-anchor="middle" x="138" y="-15.8" font-family="Arial" font-size="14.00" fill="#c0c0c0">Users</text>
</g>
<!-- Dana -->
<g id="node1" class="node">
<title>Dana</title>
<ellipse fill="none" stroke="#000000" stroke-dasharray="5,2" cx="235" cy="-201" rx="33.5952" ry="18"/>
<text text-anchor="middle" x="235" y="-197.3" font-family="Arial" font-size="14.00" fill="#000000">Dana</text>
</g>
<!-- Organization -->
<g id="node4" class="node">
<title>Organization</title>
<polygon fill="none" stroke="#000000" points="185,-147 95,-147 95,-111 185,-111 185,-147"/>
<text text-anchor="middle" x="140" y="-125.3" font-family="Arial" font-size="14.00" fill="#000000">Foundation</text>
</g>
<!-- Dana&#45;&gt;Organization -->
<g id="edge1" class="edge">
<title>Dana&#45;&gt;Organization</title>
<path fill="none" stroke="#000000" d="M215.3159,-186.0816C202.8677,-176.6471 186.4843,-164.2302 172.1777,-153.3873"/>
<polygon fill="#000000" stroke="#000000" points="174.1234,-150.4704 164.0396,-147.2195 169.8953,-156.0492 174.1234,-150.4704"/>
</g>
<!-- Charles -->
<g id="node2" class="node">
<title>Charles</title>
<ellipse fill="none" stroke="#000000" cx="140" cy="-201" rx="43.5923" ry="18"/>
<text text-anchor="middle" x="140" y="-197.3" font-family="Arial" font-size="14.00" fill="#000000">Charles</text>
</g>
<!-- Charles&#45;&gt;Organization -->
<g id="edge2" class="edge">
<title>Charles&#45;&gt;Organization</title>
<path fill="none" stroke="#000000" d="M140,-182.8314C140,-175.131 140,-165.9743 140,-157.4166"/>
<polygon fill="#000000" stroke="#000000" points="143.5001,-157.4132 140,-147.4133 136.5001,-157.4133 143.5001,-157.4132"/>
</g>
<!-- Cara -->
<g id="node3" class="node">
<title>Cara</title>
<ellipse fill="none" stroke="#000000" cx="47" cy="-201" rx="31.3957" ry="18"/>
<text text-anchor="middle" x="47" y="-197.3" font-family="Arial" font-size="14.00" fill="#000000">Cara</text>
</g>
<!-- Cara&#45;&gt;Organization -->
<g id="edge3" class="edge">
<title>Cara&#45;&gt;Organization</title>
<path fill="none" stroke="#000000" d="M65.8199,-186.4297C78.0655,-176.9493 94.3379,-164.3513 108.5213,-153.3706"/>
<polygon fill="#000000" stroke="#000000" points="110.8201,-156.0173 116.5847,-147.128 106.5348,-150.4822 110.8201,-156.0173"/>
</g>
<!-- Una -->
<g id="node5" class="node">
<title>Una</title>
<ellipse fill="none" stroke="#000000" cx="191" cy="-57" rx="28.6953" ry="18"/>
<text text-anchor="middle" x="191" y="-53.3" font-family="Arial" font-size="14.00" fill="#000000">Una</text>
</g>
<!-- Organization&#45;&gt;Una -->
<g id="edge4" class="edge">
<title>Organization&#45;&gt;Una</title>
<path fill="none" stroke="#000000" d="M152.8695,-110.8314C159.0146,-102.1559 166.469,-91.632 173.1509,-82.1987"/>
<polygon fill="#000000" stroke="#000000" points="176.0864,-84.1096 179.0105,-73.9263 170.3742,-80.0635 176.0864,-84.1096"/>
</g>
<!-- Ulysses -->
<g id="node6" class="node">
<title>Ulysses</title>
<ellipse fill="none" stroke="#000000" cx="100" cy="-57" rx="44.393" ry="18"/>
<text text-anchor="middle" x="100" y="-53.3" font-family="Arial" font-size="14.00" fill="#000000">Ulysses</text>
</g>
<!-- Organization&#45;&gt;Ulysses -->
<g id="edge5" class="edge">
<title>Organization&#45;&gt;Ulysses</title>
<path fill="none" stroke="#000000" d="M129.9063,-110.8314C125.3716,-102.6688 119.9278,-92.87 114.9348,-83.8827"/>
<polygon fill="#000000" stroke="#000000" points="117.8679,-81.9552 109.9519,-74.9134 111.7488,-85.3548 117.8679,-81.9552"/>
</g>
</g>
</svg>
