<?xml version="1.0" encoding="UTF-8" standalone="no"?>
<!DOCTYPE svg PUBLIC "-//W3C//DTD SVG 1.1//EN"
 "http://www.w3.org/Graphics/SVG/1.1/DTD/svg11.dtd">
<!-- Generated by graphviz version 2.40.1 (20161225.0304)
 -->
<!-- Title: %3 Pages: 1 -->
<svg width="335pt" height="224pt"
 viewBox="0.00 0.00 335.00 224.00" xmlns="http://www.w3.org/2000/svg" xmlns:xlink="http://www.w3.org/1999/xlink">
<g id="graph0" class="graph" transform="scale(1 1) rotate(0) translate(4 220)">
<title>%3</title>
<polygon fill="#ffffff" stroke="transparent" points="-4,4 -4,-220 331,-220 331,4 -4,4"/>
<g id="clust1" class="cluster">
<title>clusterContributors</title>
<polygon fill="none" stroke="#c0c0c0" points=".326,-42.7642 .326,-215.7642 186.326,-215.7642 186.326,-42.7642 .326,-42.7642"/>
<text text-anchor="middle" x="93.326" y="-200.5642" font-family="Arial" font-size="14.00" fill="#c0c0c0">Cross License Foundation</text>
</g>
<g id="clust2" class="cluster">
<title>clusterUsers</title>
<polygon fill="none" stroke="#c0c0c0" points="210.4025,-.0321 210.4025,-206.0321 327.4025,-206.0321 327.4025,-.0321 210.4025,-.0321"/>
<text text-anchor="middle" x="268.9025" y="-190.8321" font-family="Arial" font-size="14.00" fill="#c0c0c0">Users</text>
</g>
<!-- Charles -->
<g id="node1" class="node">
<title>Charles</title>
<ellipse fill="none" stroke="#000000" cx="78.7934" cy="-69.1455" rx="43.5923" ry="18"/>
<text text-anchor="middle" x="78.7934" y="-65.4455" font-family="Arial" font-size="14.00" fill="#000000">Charles</text>
</g>
<!-- Cara -->
<g id="node2" class="node">
<title>Cara</title>
<ellipse fill="none" stroke="#000000" cx="144.9278" cy="-160.6405" rx="31.3957" ry="18"/>
<text text-anchor="middle" x="144.9278" y="-156.9405" font-family="Arial" font-size="14.00" fill="#000000">Cara</text>
</g>
<!-- Charles&#45;&gt;Cara -->
<g id="edge1" class="edge">
<title>Charles&#45;&gt;Cara</title>
<path fill="none" stroke="#000000" d="M97.5173,-95.0494C106.7384,-107.8065 117.8053,-123.1172 126.9268,-135.7365"/>
<polygon fill="#000000" stroke="#000000" points="100.2395,-92.8408 91.5448,-86.7866 94.5664,-96.9415 100.2395,-92.8408"/>
<polygon fill="#000000" stroke="#000000" points="124.1895,-137.9244 132.8843,-143.9785 129.8627,-133.8237 124.1895,-137.9244"/>
</g>
<!-- Ulysses -->
<g id="node5" class="node">
<title>Ulysses</title>
<ellipse fill="none" stroke="#000000" cx="262.6756" cy="-26.1835" rx="44.393" ry="18"/>
<text text-anchor="middle" x="262.6756" y="-22.4835" font-family="Arial" font-size="14.00" fill="#000000">Ulysses</text>
</g>
<!-- Charles&#45;&gt;Ulysses -->
<g id="edge4" class="edge">
<title>Charles&#45;&gt;Ulysses</title>
<path fill="none" stroke="#000000" d="M116.894,-60.2437C145.153,-53.6413 183.8896,-44.591 214.33,-37.4789"/>
<polygon fill="#000000" stroke="#000000" points="215.3666,-40.8311 224.3081,-35.1477 213.774,-34.0147 215.3666,-40.8311"/>
</g>
<!-- Dana -->
<g id="node3" class="node">
<title>Dana</title>
<ellipse fill="none" stroke="#000000" stroke-dasharray="5,2" cx="44.2701" cy="-166.6904" rx="33.5952" ry="18"/>
<text text-anchor="middle" x="44.2701" y="-162.9904" font-family="Arial" font-size="14.00" fill="#000000">Dana</text>
</g>
<!-- Cara&#45;&gt;Dana -->
<g id="edge2" class="edge">
<title>Cara&#45;&gt;Dana</title>
<path fill="none" stroke="#000000" d="M103.5125,-163.1297C98.4697,-163.4328 93.3036,-163.7433 88.2255,-164.0485"/>
<polygon fill="#000000" stroke="#000000" points="103.8589,-166.6153 113.6309,-162.5215 103.4388,-159.6279 103.8589,-166.6153"/>
<polygon fill="#000000" stroke="#000000" points="87.7652,-160.5698 77.9933,-164.6635 88.1853,-167.5571 87.7652,-160.5698"/>
</g>
<!-- Una -->
<g id="node4" class="node">
<title>Una</title>
<ellipse fill="none" stroke="#000000" cx="290.7063" cy="-157.4302" rx="28.6953" ry="18"/>
<text text-anchor="middle" x="290.7063" y="-153.7302" font-family="Arial" font-size="14.00" fill="#000000">Una</text>
</g>
<!-- Cara&#45;&gt;Una -->
<g id="edge5" class="edge">
<title>Cara&#45;&gt;Una</title>
<path fill="none" stroke="#000000" d="M176.201,-159.9518C198.3555,-159.4639 228.2239,-158.8062 251.9003,-158.2848"/>
<polygon fill="#000000" stroke="#000000" points="252.0391,-161.7827 261.9595,-158.0633 251.8849,-154.7844 252.0391,-161.7827"/>
</g>
<!-- Dana&#45;&gt;Charles -->
<g id="edge3" class="edge">
<title>Dana&#45;&gt;Charles</title>
<path fill="none" stroke="#000000" d="M54.0441,-139.0741C58.7281,-125.8398 64.3243,-110.0276 69.0095,-96.7897"/>
<polygon fill="#000000" stroke="#000000" points="50.6393,-138.2044 50.6022,-148.7992 57.2382,-140.5399 50.6393,-138.2044"/>
<polygon fill="#000000" stroke="#000000" points="72.3475,-97.8484 72.3846,-87.2536 65.7486,-95.5129 72.3475,-97.8484"/>
</g>
</g>
</svg>
